<svg xmlns="http://www.w3.org/2000/svg" viewBox="0 0 320 80" fill="none">
  <!-- Icon: Abstract F with tech circuit accent -->
  <g>
    <!-- Outer hexagon shape -->
    <path d="M30 8 L54 8 L66 28 L66 52 L54 72 L30 72 L18 52 L18 28 Z" fill="#2563eb" rx="4"/>
    <!-- Inner letter F -->
    <path d="M32 22 L32 58 L37 58 L37 44 L52 44 L52 39 L37 39 L37 27 L54 27 L54 22 Z" fill="white"/>
    <!-- Circuit dots -->
    <circle cx="10" cy="40" r="3" fill="#f97316"/>
    <circle cx="74" cy="40" r="3" fill="#f97316"/>
    <line x1="13" y1="40" x2="18" y2="40" stroke="#f97316" stroke-width="1.5"/>
    <line x1="66" y1="40" x2="71" y2="40" stroke="#f97316" stroke-width="1.5"/>
    <circle cx="42" cy="2" r="2.5" fill="#f97316"/>
    <line x1="42" y1="4.5" x2="42" y2="8" stroke="#f97316" stroke-width="1.5"/>
  </g>
  <!-- Company Name -->
  <text x="86" y="38" font-family="Inter, system-ui, sans-serif" font-weight="800" font-size="32" fill="#ffffff" letter-spacing="2">FwdGrow</text>
  <!-- Tagline -->
  <text x="86" y="58" font-family="Inter, system-ui, sans-serif" font-weight="500" font-size="14" fill="#cbd5e1" letter-spacing="3">IT SOLUTION</text>
  <!-- Orange accent bar -->
  <rect x="86" y="42" width="55" height="2.5" rx="1" fill="#f97316"/>
</svg>
